<?xml version="1.0" encoding="utf-8"?>
<!-- Generator: Adobe Illustrator 25.4.2, SVG Export Plug-In . SVG Version: 6.00 Build 0)  -->
<svg version="1.1" id="Layer_1" xmlns="http://www.w3.org/2000/svg" xmlns:xlink="http://www.w3.org/1999/xlink" x="0px" y="0px"
	 viewBox="0 0 50 30" style="enable-background:new 0 0 50 30;" xml:space="preserve">
<style type="text/css">
	.st0{display:none;}
	.st1{display:inline;fill:#ED1D24;}
	.st2{display:inline;}
	.st3{fill:#FFFFFF;}
	.st4{fill:#31876D;}
	.st5{font-family:'Arial-Black';}
	.st6{font-size:13px;}
	.st7{font-family:'BanglaSangamMN';}
	.st8{font-size:4.5px;}
</style>
<g class="st0">
	<rect y="4.9" class="st1" width="20" height="5"/>
	<g class="st2">
		<path class="st3" d="M42.3,9.6V6.5h-8.6l-1.4,10.3L30.9,6.5h-3.1l0.3,2.7c-0.4-0.7-1.6-2.7-4.4-2.7h-3.1v15l-2.3-15h-4L12,22.1
			V6.6H8.2l-1.4,8.7L5.4,6.5H1.5v16.9h3.1v-8.1L6,23.4h1.6L9,15.3v8.1h5.9l0.4-2.6h2.4l0.4,2.6h5.8l0,0l0,0l0,0l0,0V18l0.7-0.1
			l1.5,5.6l0,0h3l0,0l0,0l0,0l0,0L27,16.9c1-0.7,2.1-2.6,1.8-4.3l0,0l1.8,10.9h3.6l2.4-15.3v15.3h5.8v-3h-2.7v-3.9h2.7v-3.1h-2.7
			V9.6H42.3z M15.6,18.2l0.8-7.2l0.9,7.2H15.6z M24.4,14.8C24.2,14.9,24,15,23.7,15V9.6l0,0c0.2,0,2,0.1,2,2.7
			C25.8,13.6,25.2,14.5,24.4,14.8 M48.5,20.4v3h-5.6V6.5h3v13.9H48.5z"/>
	</g>
</g>
<text transform="matrix(1 0 0 1 19.136 12.0659)" class="st4 st5 st6">IDW</text>
<text transform="matrix(1 0 0 1 19.6772 16.936)" class="st4 st7 st8">PUBLISHING</text>
</svg>
