<?xml version="1.0" encoding="utf-8"?>
<!-- Generator: Adobe Illustrator 16.0.0, SVG Export Plug-In . SVG Version: 6.00 Build 0)  -->
<!DOCTYPE svg PUBLIC "-//W3C//DTD SVG 1.1//EN" "http://www.w3.org/Graphics/SVG/1.1/DTD/svg11.dtd">
<svg version="1.1" id="Layer_1" xmlns="http://www.w3.org/2000/svg" xmlns:xlink="http://www.w3.org/1999/xlink" x="0px" y="0px"
	 width="50px" height="30px" viewBox="0 0 1000 493.365" enable-background="new 0 0 1000 493.365" xml:space="preserve">
<path d="M953.003,395.183c-1.004-0.435-1.989,0.913-3.418,1.248c-0.227-0.218-0.39-0.416-0.57-0.624c-3.2-1.122-2.894-0.29-6.854,0
	c-0.127,1.438-0.127,1.735-0.597,2.495v1.266h14.838C955.507,397.597,954.621,396.313,953.003,395.183 M935.867,378.951
	c-0.777,2.044-1.355,3.734-2.848,4.965c-0.76,0.479-4.721-0.534-7.424-0.597c0.217,2.54-0.344,7.694,0.579,9.35
	c0.126,2.83,0.597,3.002,1.103,5.019c2.668,0.65,7.071,0.207,8.029,1.221h1.14c0.488-2.379,1.646-11.321,2.857-13.121
	c-0.28-4.068-1.655-3.49-2.278-6.836H935.867z M127.333,386.438h1.139v-1.257h-1.139V386.438z M904.473,358.978
	c-1.393,1.139-3.174,1.401-4.023,3.102c-1.845,3.788-1.754,9.431-1.709,15.01c2.496,2.46,3.889,4.774,5.154,8.698
	c1.745-0.009,2.93-0.189,4.006-0.605v-25.607c0-3.165,0.624-8.545-0.57-10.615C906.914,353.037,907.33,356.563,904.473,358.978
	 M930.171,137.913c0,7.586-0.732,17.198,0.561,23.736v33.076c1.845,9.467-1.446,22.253,0.579,32.462
	c1.519,7.894,0.506,19.151,0.569,28.103c0.027,12.126,0.696,27.308,1.14,39.353h59.389c1.872-92.629,3.807-185.24,5.679-277.858
	c0.063-3.717,0.28-8.518-0.569-11.239h-69.635c0.063,31.231,1.112,62.473,1.709,93.025
	C929.791,111.682,929.972,124.793,930.171,137.913 M996.947,340.215c-3.526,0.308-4.801,2.604-5.108,6.248
	c-2.677-0.045-4.413-0.045-5.715,1.248h-1.718c0.488-2.098,1.266-4.675,2.866-5.615c1.32-1.609,1.745-0.361,3.987-1.239l6.258-4.367
	c0.85-4.35,2.278-6.492,2.314-11.258h-74.236v35.608c0,3.97-1.013,11.646,0.579,14.359c1.835,0.705,1.898-2.144,5.136-1.266
	c2.062,0.587,3.201,3.418,5.715,1.871c2.088-1.094-0.199-2.359,3.418-3.128c-1.619-1.23-4.061-0.543-5.137,0.642h-1.148
	c0-4.015,0.706-5.38,2.867-6.872c-0.488-3.354-2.388-4.295-4.612-5.606c0.227-1.446,0.29-1.555,0.606-2.495
	c2.287-0.172,4.855-0.851,6.826,0.633c6.918,0.353,8.012-0.308,9.739-5.651c2.125-0.949,3.391-1.772,6.284-1.872
	c0.47,2.469,0.949,1.872,1.709,3.753c-1.176,1.202-2.668,4.946-4.006,5.633c-2.062,1.04-5.254-1.274-6.872,1.239
	c-1.592,2.522,2.405,4.801-1.112,8.12c1.112,3.472,3.201,2.54,5.706,4.349c4.503,0.163,5.353-0.732,6.854-3.752
	c1.718,0.994,0.696,0.786,0.569,3.138c2.795,0.614,8.184,1.202,9.676,1.871c2.595,0.316,2.469,0.823,4.023,1.881
	c-0.344,3.78-1.582,3.807-2.849,6.23c-1.998-0.127-2.45-0.199-3.454-1.23c-1.817-0.822-1.527-0.515-1.69-3.119h-0.569
	c-0.534,1.592-0.66,3.327-1.709,4.35c-0.227,0.226-0.38,0.461-0.57,0.65v-0.65h-1.148c0.488-2.107,0.29-1.564,1.719-2.478v-1.248
	c-2.279,0.217-4.566,0.416-6.854,0.624c0.859,1.854,2.188,1.845,3.961,2.505c-1.049,1.979-1.673,2.712-1.673,6.221
	c2.505-0.397,4.783-1.52,6.275-3.102c2.92,0.416,2.468,1.438,4.005,3.102c0.055,3.617-0.162,6.104-1.139,8.147
	c-3.11-0.1-2.957-0.624-4.575-1.881c-0.796,1.039-1.556,2.088-2.279,3.102h-1.148c2.197,1.527,8.156,0.659,11.385,0.659h29.73
	v-41.223C999.832,349.827,1001.044,344.646,996.947,340.215 M933.02,367.079c-0.443,1.429-0.606,1.374-1.14,2.496
	c-1.329-0.127-1.618-0.108-2.288-0.615c-0.442-0.678-0.379-0.588-0.569-1.881H933.02z M969.567,331.489h2.288
	c0.181,0.208,0.344,0.416,0.561,0.614c-0.253,1.284-0.153,1.212-0.561,1.863c-0.199,0.633-0.389,1.274-0.597,1.881
	c-1.953-0.362-1.754-0.742-3.4-1.248C968.293,332.249,968.482,332.818,969.567,331.489 M969.567,342.737
	c-0.822,0.38-5.108-0.081-6.284-1.266c-0.66-1.356,0.832-2.93,1.683-4.367c1.355-0.136,1.618-0.127,2.314-0.615
	c1.356,1.754,1.465,3.146,3.427,4.367C970.191,342.855,970.987,341.815,969.567,342.737 M978.131,370.796h-2.314
	c-0.29-1.592-0.543-2.749-0.579-4.965c-1.04-0.425-2.215-0.642-3.979-0.642c1.7-2.713,1.7-2.098,0-4.982
	c-0.516-1.04,0.434-1.754,1.157-3.129c1.972-0.054,4.575-0.208,5.715,0.624h1.14c-0.091,2.677-0.471,3.798-1.14,5.643
	c0.38,0.397,0.732,0.823,1.14,1.229c1.338-0.145,1.591-0.145,2.287-0.605h1.112C982.028,367.522,979.687,368.3,978.131,370.796
	 M953.003,380.814c-0.208-0.208-0.38-0.407-0.57-0.624h-2.848c-1.501,1.41-3.012,3.191-4.566,4.376v1.221
	c3.58-0.633,4.819-2.794,7.984-3.734V380.814z M907.9,332.104c-0.443,0.688-0.39,0.562-0.57,1.863
	c-1.401-0.796-0.416,0.334-1.139-1.239c-3.021-0.063-4.612,0.271-6.294,1.239c0.732,2.025,1.817,2.152,2.866,3.762
	c2.161-0.904,1.8-1.772,5.137-1.881V332.104z M907.9,341.472v-3.743h-0.57c-0.38,1.393-0.452,1.654-1.139,2.486
	C907.014,341.779,906.02,340.965,907.9,341.472 M650.911,298.386h1.176v-1.229h-1.176V298.386z M648.091,303.395
	c-0.19,0.606-0.416,1.239-0.57,1.872h1.112C648.434,303.965,648.506,304.055,648.091,303.395 M846.802,327.104l0.569-0.624
	c-0.886-0.325-0.985-0.434-2.287-0.605C845.12,326.452,845.437,328.795,846.802,327.104 M905.033,351.454h-1.139v1.221h1.139
	V351.454z M900.449,359.574h1.13c-0.189-1.266-0.126-1.176-0.524-1.872C900.856,358.345,900.676,358.978,900.449,359.574
	 M124.47,383.916v-0.597h-1.13C123.923,383.816,123.48,383.545,124.47,383.916 M432.81,305.267c0.379,0.208,0.777,0.407,1.157,0.615
	c0.176-0.208,0.389-0.407,0.556-0.615c-0.416-2.278,0.055-1.745-1.713-2.531C432.457,304.281,432.615,303.774,432.81,305.267
	 M408.83,329.012c0.593-1.049-0.397-1.673-0.574-1.908C408.785,328.053,407.406,327.782,408.83,329.012 M479.634,289.65
	c-0.425,2.071-1.221,6.764,0,8.735v1.257h1.148C480.896,296.134,481.33,291.278,479.634,289.65 M395.727,289.65
	c0.168,4.774,0.38,9.567,0.548,14.351c0,0-0.62,4.684-0.548,5.019c0,0.072,1.696,1.221,1.696,1.221
	c0.303,1.338-1.148,2.686-1.148,3.128c0.397,5.471,4.557,4.874,2.861,10.606c3.536,0.715,9.155,0.326,11.397,2.505
	c2.731-0.262,4.815-1.501,6.308-3.128h0.583c-0.751-1.583-0.624-1.356-2.314-1.881v-1.248h3.44c-0.339-3.084-0.24-4.847,0-8.111
	c5.235-2.459,7.862-3.879,10.29-9.376c0.186-0.19,0.361-0.398,0.556-0.606h-0.556c-0.732-1.564-1.325-1.429-2.306-2.486h-0.565
	c0.434-1.456,0.583-1.42,1.13-2.486c1.867,0.714,3.5,2.622,5.163,3.101c4.661,1.366,9.391-6.013,10.272-9.367h0.574
	c-0.724-1.601-2.084-2.314-3.445-3.119c0.886-4.513,5.656-5.091,8.007-11.23c1.307,0.171,1.429,0.28,2.278,0.623
	c0.891,3.916,1.37,10.733,3.409,13.727c0.203,0.633,0.407,1.257,0.574,1.881c3.192,0.117,4.48,0.072,5.732-1.881h2.274
	c-1.018,3.093-3.607,4.729-5.136,7.496c-3.11-0.19-3.929-0.787-3.992-4.358h-1.157c-0.999,2.631-1.972,5.308-3.983,6.836
	c0.131,2.197,0.213,2.658,1.112,3.771v0.633h1.166c-0.185-1.69-0.37-3.354-0.574-5.01h2.279c0.38,3.029-0.204,6.022,0.583,8.763
	c0.194,0.397,0.371,0.805,0.574,1.221c-0.574,0.642-1.157,1.257-1.704,1.871c0.054,6.031,2.897,4.259,5.696,6.882
	c4.833-0.552,8.404-4.006,11.98-6.239v-1.257c-2.065-0.95-3.436-1.963-5.141-3.11c0.213-3.554,0.398-7.09,0.584-10.616
	c0.239-0.461,5.999-3.065,6.845-3.743c1.637-1.365,2.184-3.717,4.006-5.01c-1.329-2.287-6.186-1.202-7.433-1.862
	c-0.177-0.217-0.371-0.425-0.565-0.624c1.564-1.338,2.387-3.815,3.992-5.01c1.637-1.193,3.323-0.913,4.57-2.495
	c3.134,0.651,2.89,2.369,4.558,4.386c1.528-5.127-0.239-13.718,0-18.754c0.529-9.874,0.583-22.208,0.583-33.068V62.356
	c1.167-4.611,4.15-5.904,6.854-8.762c4.756,0,8.296,0.832,10.285,3.753c4.593,6.781,2.278,34.948,2.278,46.838v80.548
	c0,13.671-1.369,29.93,0.584,42.453c1.107,7.207-3.142,33.782,0,39.352c0.361,1.085,0.09,0.605,0.574,1.257
	c0.841-1.836,1.699-2.378,2.857-3.743c1.297,0.135,1.587,0.135,2.251,0.605h1.148c-0.194,4.015-1.388,3.915-2.853,6.267
	c-1.157-0.263-1.09-0.163-1.705-0.634c-1.319,0.19-1.441,0.299-2.273,0.634c-0.113,3.996-1.131,11.7,0,13.734
	c-0.041,3.129,0.267,4.494,1.107,6.23c3.215-2.18,2.88-6.745,8.586-8.734v-3.762c1.591,0.271,5.796,2.441,6.849,1.89
	c0.484-0.263,1.031-2.821,1.705-3.12h6.836c0.954-0.488,1.008-1.854,2.314-2.504c1.556-0.732,6.248,3.671,7.424,5.624
	c7.768-0.027,7.926-3.4,13.129-4.991c-0.664-7.152,0.732-8.147,3.4-14.387c6.628,0.271,8.057,2.053,14.87,1.872
	c1.238-1.401,2.192-1.528,2.861-3.734c4.341,0.76,9.992,4.15,13.129,6.89c0.665,1.131,0.091,2.135,1.14,3.744v0.614h1.148v-25.599
	c-1.37,0.958-1.687,1.845-3.427,2.505c-0.796,0.435-0.732,0.19-1.714-0.642h-1.148c0.194-0.19,0.389-0.416,0.574-0.624
	c0.954-3.065,3.4-3.273,5.715-3.102V96.69c0-27.724,1.424-55.818-9.142-71.805C559.653-0.053,517.874,0.535,480.2,0.535
	c-20.128,0-44.678,0.063-57.667,8.726c-29.581,19.784-26.832,53.711-26.806,104.898V289.65z M579.568,249.069h1.687v0.605
	c-0.353,0.435-0.732,0.841-1.112,1.267h-1.713C578.94,249.566,578.94,250.046,579.568,249.069 M575.567,143.528
	c0.732-0.542,1.401-0.57,2.862-0.606c-0.222,1.275-0.158,1.194-0.574,1.872c-0.665,1.835-1.334,1.736-2.288,3.092
	c-1.804-0.334-1.673-0.524-2.849-1.257C573.198,144.36,573.633,144.143,575.567,143.528 M565.865,256.538
	c0.705-2.333,1.714-3.155,4.001-3.734c0.691-0.47,0.538-0.027,2.278,0c0.194,0.208,0.349,0.416,0.574,0.615v1.257
	c-0.953,1.257-1.898,2.495-2.853,3.752h-4.575C565.513,257.145,565.422,257.217,565.865,256.538 M556.728,250.941
	c-0.343,2.359-0.854,2.613-1.139,4.991c-0.954,0.189-1.908,0.416-2.89,0.605C553.053,253.355,553.848,251.456,556.728,250.941
	 M538.458,189.716c1.14-1.221,2.288-2.478,3.427-3.744h2.854c-0.791,2.641-2.121,3.165-3.428,5.01h-2.853V189.716z M513.904,264.658
	h1.148c0.203,0.208,0.38,0.434,0.574,0.615c-0.448,1.465-0.615,1.419-1.157,2.522h-1.705
	C513.086,265.824,513.262,265.96,513.904,264.658 M509.903,147.281v0.606c-0.186,0.217-0.371,0.452-0.584,0.606
	c-1.324-0.516-0.927-0.226-1.704-1.212H509.903z M501.358,228.453c0.709-0.416,1.157-0.669,1.699-1.266
	c0.371,0.208,0.751,0.443,1.158,0.624c-0.213,0.642-0.407,1.284-0.602,1.899h-2.256V228.453z M471.072,219.691h2.287v1.881
	c-0.564,0.605-1.13,1.257-1.704,1.872h-2.287C469.756,221.128,470.208,221.255,471.072,219.691 M463.087,308.387
	c-0.741,2.007-1.822,2.124-2.839,3.725h-2.306c0.32-3.48,1.555-4.051,2.856-6.229h1.723
	C462.654,307.311,462.626,307.654,463.087,308.387 M460.249,277.163h1.69c-0.285,1.32-0.497,2.252-1.14,3.12v0.605h-1.135
	C459.719,279.116,459.886,278.239,460.249,277.163 M441.969,247.804c1.315,0.479,1.275,0.642,2.27,1.266
	c-0.724,2.152-1.74,2.17-2.871,3.734h-1.121c-0.194-0.199-0.37-0.416-0.583-0.615C440.143,249.566,440.893,249.539,441.969,247.804
	 M426.535,294.643v1.238h-1.723c0.203-0.624,0.389-1.238,0.583-1.854h1.704C426.923,294.235,426.738,294.425,426.535,294.643
	 M431.702,284.659c0.249-2.821,0.71-2.694,1.7-4.376c1.967,0.76,2.437,1.989,3.983,3.129c-0.222,1.274-0.141,1.175-0.548,1.862
	c-0.683,1.881-1.36,1.727-2.314,3.138c-2.129-0.244-2.111-0.516-3.404-1.257C431.254,285.682,431.209,285.374,431.702,284.659
	 M428.84,289.018v1.257c-0.484,0.643-0.213,0.136-0.583,1.248c-0.584,0.199-1.158,0.425-1.723,0.624
	c-0.186-0.624-0.371-1.257-0.565-1.872c0.714-0.406,1.193-0.687,1.704-1.257H428.84z M418.55,277.163
	c0.944-2.938,2.726-2.604,4.566-4.376h1.695l1.157,1.266c-0.397,2.804-1.234,3.146-2.278,4.974
	c-1.442,0.081-2.111,0.081-2.862,0.624c-1.479-0.118-1.944-0.29-2.861-0.624C418.211,277.742,418.098,277.823,418.55,277.163
	 M401.433,300.257h2.256c0.059,2.768,0,4.296-1.107,5.625c-0.605,0.497-0.167,0.234-1.148,0.624
	c-0.547-1.366-0.769-2.225-1.723-3.111C400.235,301.686,400.683,301.551,401.433,300.257 M473.929,310.882
	c0.271,3.138,1.157,4.159,1.713,6.872c4.291-1.329,2.79-9.729,5.141-13.12c-0.167-2.225-0.036-2.089-1.148-3.129
	C478.025,304.553,476.118,308.332,473.929,310.882 M774.854,350.225c0.406-0.787,0.026-0.615,0-2.514h-1.131
	c-0.361,1.356-0.688,1.266,0,2.514C774.572,350.622,773.931,350.993,774.854,350.225 M475.642,332.104
	c0.476-0.741,0.476-1.058,0.574-2.478c-2.025-0.054-3.102-0.307-4.562-0.614c-1.781,2.188-2.957,5.732-5.149,7.478v1.239
	c2.278-0.398,4.566-0.851,6.854-1.239C474.115,335.016,474.883,333.578,475.642,332.104 M748.585,373.934h1.112v-1.257h-1.112
	V373.934z M735.456,364.574h0.561c-0.38-1.058-0.09-0.605-0.561-1.229V364.574z M323.2,332.104h-2.287
	c-0.194,0.624-0.389,1.257-0.574,1.863c1.315-0.118,1.596-0.108,2.287-0.606h0.574V332.104z M901.579,326.479v1.89
	c2.551-1.021,2.677-2.369,6.321-2.495v-3.753c-2.216-0.063-2.885-0.145-4.006-1.257c-0.145-0.434,3.97-12.161,4.006-18.735V5.545
	H778.822c-5.461,29.414-5.235,61.441-11.393,90.512c-1.719,8.129-1.303,16.375-2.857,23.745
	c-2.369,11.122-1.809,22.696-3.997,33.104c-2.947,13.952-2.378,29.053-5.136,42.444v18.121c-1.14,5.678,0.688,14.16-0.579,20.607
	c-2.468,12.415,0.172,28.068-1.709,40.583c-0.533,3.626,2.197,4.34,1.709,7.496c-0.47,3.155-2.694,5.805-4.023,8.119l-2.83,1.248
	c-1.067-3.146-1.556-4.647-4.558-5.643c-0.226-0.198-0.38-0.406-0.578-0.605c-1.609,1.908-2.912,4.295-4.558,6.248
	c-1.248,0.896-4.955,1.546-6.284,1.854v-0.605h-0.569c1.935-6.953,8.337-6.375,12.568-10.615c0.94-1.32,0.813-4.124,1.709-5.615
	c1.329-1.972,1.13-1.556,3.427-1.248c0.181-0.208,0.38-0.443,0.533-0.633c-1.871-45.7-1.274-93.587-9.702-133.002
	c-2.667-12.632-1.266-25.454-3.979-38.077c-2.531-11.763-2.622-25.724-5.136-37.47c-0.38-4.811-0.76-9.576-1.14-14.387
	c-1.582-7.342-1.139-15.66-2.848-23.717c-1.402-6.475-2.704-14.612-2.867-21.864c-0.217-0.199-0.379-0.425-0.597-0.597h-88.469
	c-9.964,0-32.136-2.225-39.976,0.597v201.071c0,17.153-1.139,39.017,0.552,53.087c0.724,5.742-1.556,11.447,2.314,14.992
	c-0.262,1.274-0.172,1.193-0.578,1.871v0.606c-0.416-0.19-0.76-0.398-1.14-0.606c-0.353,0.986-0.488,1.501-0.597,3.12
	c1.826,0.361,1.673,0.552,2.849,1.238c-0.154,0.208-0.353,0.416-0.534,0.634c-1.121,0.561-0.452,0.253-1.718,0
	c-0.199,0.217-0.389,0.415-0.597,0.633v2.486c0.777-0.208,1.537-0.407,2.314-0.615c0.471,0.371,0.38,1.365,1.14,1.872v0.624
	l-4.006,1.257c-0.063,5.398-1.293,23.618,0.552,26.828c0.208,0.217,0.397,0.407,0.597,0.615c2.785-4.16,6.022-8.717,8.563-13.12
	c1.745,0.045,4.123,0.877,5.108,0.659c1.329-0.307,3.771-2.649,5.172-3.138c2.785-0.949,4.503,0.416,6.275-1.238
	c0.579-0.217,1.112-0.416,1.718-0.633c-0.253-1.284-0.162-1.203-0.605-1.872c0.244-1.176,5.543-8.301,6.275-8.743
	c1.908-1.131,3.807-0.046,5.742-0.615c0.198-3.346,0.353-6.673,0.578-9.992c-0.38-0.75-1.492-0.171-2.297-3.11
	c2.74-3.21,2.93-6.021,6.854-8.12c0.705-0.488,0.542-0.081,2.297,0c-0.326,1.601-0.579,2.749-0.606,4.992
	c2.505,0.425,4.982,0.822,7.424,1.238v1.89c2.062-1.221,7.74-4.692,11.411-1.89h1.176c-1.04,2.984-2.242,4.991-6.275,5
	c-0.325,0.95-0.416,1.04-0.569,2.487c-1.401-0.841-4.313-2.144-6.284-0.624h-1.14c0.569,2.495,1.709,2.595,2.849,4.386
	c1.591-0.732,1.049-0.1,1.709-1.891h3.979c-1.022,1.881-1.936,2.84-2.261,5.634c3.427-0.217,4.068-1.338,6.817-1.881
	c-0.796,4.422-4.023,6.022-5.669,9.368c-1.148,2.215,0.605,3.454,0,5.614c-0.823,2.93-4.16,3.563-5.742,5.625
	c-1.654,2.27-1.302,6.193-2.821,8.753c0.027,11.817,3.518,8.951,5.1,16.854c5.534-0.344,9.169-5.77,14.884-3.753
	c1.646,0.579,2.089,2.025,4.539,2.505v-36.865c0-4.087,0.145-8.229-1.121-10.588c-0.181-0.416-0.38-0.851-0.569-1.267
	c2.993-9.566,1.69-26.665,1.69-40.573c0-21.674,1.013-43.438-2.83-61.821c-1.555-7.36-0.316-15.2-1.709-21.873v-6.863
	c-2.677-11.122-1.121-25.011-3.436-36.232c-1.013-4.72,0.867-10.724-1.14-14.331V98.57h3.436c1.936,16.737,3.87,35.147,7.379,51.188
	c2.803,12.605,2.55,25.626,5.145,37.48l1.176,12.497c2.83,13.048,3.391,28.229,6.284,41.214c3.392,15.228,3.038,31.07,6.275,45.583
	c1.212,5.516-0.126,12.487,2.279,16.863c0.379,1.049,0.108,0.606,0.542,1.239c1.718-4.964,3.273-5.598,6.312-8.753
	c0.199-0.199,0.353-0.389,0.543-0.624c-1.492-1.04-3.301-2.36-3.961-4.367c1.14-1.465,2.242-2.902,3.418-4.358h2.866
	c-0.226,1.284-0.136,1.193-0.569,1.881c0.054,1.745,0.217,2.649,0.569,3.734c0.985,0.38,0.533,0.108,1.095,0.624
	c3.942-0.887,2.73-3.454,7.469-3.753c-0.543-1.419-1.085-1.799-1.719-3.138c1.303-1.32,2.568-2.414,3.997-3.725
	c1.718,1.03,2.351,3.119,3.997,4.376c-0.507,1.456-0.254,1.021-1.14,1.881c-0.823,0.434-0.724,0.189-1.709-0.642
	c-1.221,0.262-1.112,0.162-1.709,0.642l-0.579,0.605h0.579c0.054,5.227-0.868,6.375-2.297,9.368
	c-2.658-0.235-5.108-0.985-7.424-1.872l-0.561,0.643c0.471,2.115,0.28,1.573,1.709,2.486c-0.958,3.093-3.083,3.924-4.032,6.863
	c-3.392-0.154-2.921,0.28-6.275,0.633c-0.163,0.198-0.38,0.406-0.579,0.624c0.479,5.244,2.604,6.438,1.176,10.597
	c1.049,0.534,2.531,1.112,3.427,1.863h3.391c-0.524-1.944-1.455-3.382-2.242-4.982c2.821-2.758,1.166-4.105,5.696-6.854
	c1.691,2.893,3.626,5.633,5.715,8.11c0.199,0.217,0.38,0.416,0.579,0.615h-0.579c-0.533,1.682-0.569,1.646-1.709,2.504v0.606
	c4.476,0.985,6.944,0.958,10.281,3.129c-0.38,3.987-1.809,3.436-2.857,6.274c-1.998-0.181-2.414-0.244-3.418-1.257
	c-1.845-0.822-1.537-0.542-1.718-3.138h-1.148c-0.316,3.373-0.534,5.534-3.454,7.496v1.239c1.845-0.325,2.92-0.796,4.023-1.863
	c1.465,0.146,1.917,0.28,2.857,0.624c0.579,2.116,1.809,4.042,1.148,5.651c-0.353,7.243-5.362,7.931-6.32,14.296
	c4.665,0.081,9.485,0.145,12.568-1.221c0.217,0.208,0.407,0.425,0.597,0.643c-0.66,3.272-3.011,6.718-0.597,9.982
	c0,0,5.742-1.999,6.881-3.102c0.471-1.248-0.026-1.42-1.139-2.514c0.406-2.315,0.822-2.216,1.709-3.789
	c-1.809-0.47-3.265-0.163-5.173-1.221c0.036-5.461,1.583-5.76,3.464-8.717c2.314,0.471,2.314,0.769,2.848,3.102
	c2.315,0.199,4.16,1.085,5.715,0h1.718c-0.831,2.45-1.845,2.333-4.005,3.12c1.808,7.469,0.949,11.447,7.423,15.615
	c-0.189,1.673-0.38,3.337-0.597,5.001c5.742-0.027,8.943,0.687,12.587,2.514c1.429-1.583,3.653-2.27,5.146-3.762
	c0.189-0.217,0.379-0.416,0.569-0.624c-0.859-0.552-1.655-1.121-2.278-1.872h-0.579v-0.642h3.427
	c-0.226-12.984,2.062-5.904,6.845-10.615c1.655-1.601,2.352-4.549,4.006-6.222c-0.442-2.686-1.021-2.785-2.866-3.743
	c0.516-1.492,0.199-1.049,1.121-1.872c0.851-0.524,3.545,1.257,4.594,2.487c6.791-0.326,7.071-4.838,10.832-8.12
	c-0.325-3.038-1.537-3.301-3.399-4.377c1.329-4.068,4.919-3.31,6.854-6.248c0.886-1.32,0.813-3.165,1.708-4.358v-0.65
	c1.294,0.497,1.267,0.669,2.288,1.274v9.358c2.188-0.723,4.503-2.278,6.275,0c1.998-0.723,2.568-1.808,4.566-2.478
	c-0.497-5.208-0.063-9.855,3.391-13.771c0.669-0.507,2.677-0.959,3.454-1.221v-4.395c-0.913,0.37-1.356,0.542-2.849,0.642
	c0.732-4.439,3.518-4.711,4.566-8.753c1.148-9.566,2.288-19.133,3.428-28.709c6.374-28.962,6.69-60.99,13.138-89.934
	c1.899-8.572,0.959-16.33,2.857-24.975c2.568-11.683,2.369-24.414,5.136-36.847c1.52-6.881,3.265-15.436,3.418-23.094h3.437
	c-0.633,13.79-1.401,31.295-4.006,44.352c-1.872,9.25-0.569,18.907-2.278,27.443c-2.668,13.165-0.887,28.456-3.428,41.232v88.659
	c0,4.521-1.266,13.699,0.562,16.855c1.049,2.694,1.826,0.822,3.436,2.504c0.705,0.742,1.302,4.793,1.709,5.615
	c5.146,0.109,3.843-1.147,5.688-4.367c0.497-0.334,2.849,0.552,5.136,0.606c0.218,0.217,0.407,0.442,0.597,0.65
	c-0.379,1.375-0.415,1.637-1.139,2.496c0.705,3.508,2.505,3.481,2.821,7.486h-2.279c0.344,2.966,0.923,2.804,2.876,3.744
	c-0.851,1.103-2.813,1.854-3.988,2.531v1.836c1.782-0.38,1.366-0.1,2.279-1.239c1.311,0.651,1.238,1.076,2.287,1.881
	c-1.338,2.731-2.894,1.32-5.136,0.615c-1.555,2.694-4.412,5.796-6.881,7.487c0.226,7.034,2.658,13.843-1.691,17.487
	c0.036,2.803,0.362,3.418,1.14,5c12.162,0.29,13.943-6.637,18.247-14.368c7.271,0.199,5.244-0.416,10.272-2.504
	c3.599-1.438,4.539,0.289,8.029-1.899c-0.253-1.229-0.127-1.148-0.561-1.835c0.759-3.708,4.539-5.651,6.275-8.744h5.1
	c0.226-0.217,0.389-0.416,0.614-0.624c0.027-1.601,0.063-2.333,0.562-3.093c0.162-4.503,0.162-6.546-2.279-8.138
	c0.543-4.286,2.768-8.246,6.258-9.377v-0.642h2.875c-0.316,1.627-0.561,2.803-0.597,5.009
	C896.67,325.647,899.12,326.082,901.579,326.479 M597.852,150.391h-1.139v-1.238h1.139V150.391z M601.84,272.163h-1.709
	c0.506-1.356,0.47-0.913,1.139-1.872h1.14C602.22,270.925,601.993,271.539,601.84,272.163 M603.549,224.049
	c-0.977,0.443-0.579,0.153-1.14,0.66h-2.849c0.57-1.447,0.986-1.375,1.709-2.532h2.279V224.049z M638.985,111.682h2.224
	c-0.153,0.208-0.353,0.407-0.533,0.651c-0.615,1.384-0.995,1.329-1.69,2.451h-1.176
	C638.099,112.839,638.325,112.993,638.985,111.682 M642.954,241.555c-0.858,0.868-1.654,2.062-2.278,3.138h-3.436v-1.863
	c0.949-1.049,1.898-2.106,2.856-3.138c0.959,0.217,1.908,0.416,2.857,0.606V241.555z M662.359,281.521h-2.315
	c0.254-1.266,0.199-1.193,0.579-1.871c0.597-0.57,1.212-0.136,2.278-1.257h1.176C663.534,280.084,663.101,280.238,662.359,281.521
	 M662.901,255.29c0.977,1.501,2.261,1.917,3.463,3.138c0.443,0.679,0.354,0.588,0.57,1.872c-2.216-0.38-2.948-1.058-4.575-1.872
	c-2.025,3.292-4.938,5.887-6.872,9.368c-2.768-0.1-3.237-0.651-5.118-1.257c1.085-4.105,3.183-6.646,4.006-11.249
	C658.905,255.914,659.384,257.75,662.901,255.29 M696.629,265.933c-1.898-0.895-1.176-0.217-1.14-1.88
	c0.38,0.198,0.76,0.406,1.14,0.605V265.933z M701.204,274.659c-0.397,0.189-0.805,0.425-1.157,0.633
	c-0.181-0.208-0.38-0.443-0.561-0.633c0.561-1.944,1.429-2.821,2.242-4.368h1.745C702.777,271.675,701.855,273.284,701.204,274.659
	 M705.183,248.445c-0.181,0.208-0.38,0.407-0.561,0.624c-0.389-0.416-0.769-0.841-1.148-1.266c0.425-2.315,0.823-2.207,1.709-3.753
	c1.157,0.253,1.085,0.172,1.691,0.642h1.175C707.606,247.36,707.027,247.46,705.183,248.445 M709.188,112.333
	c-0.533,1.664-1.021,1.8-1.709,3.093c-1.501-0.136-1.935-0.271-2.857-0.642c0.471-2.595,1.229-2.631,2.252-4.322h2.884
	C709.541,111.736,709.632,111.646,709.188,112.333 M698.871,316.497c-0.153,0.217-0.344,0.416-0.533,0.615h-1.14v-1.257h1.673
	V316.497z M729.172,264.658c2.125-0.85,3.644-0.136,5.136-1.239h2.288l0.578,0.634c-3.056,5.1-7.966,4.087-12.568,7.486h-1.718
	v-1.248C724.769,268.312,726.478,265.716,729.172,264.658 M720.572,198.478h4.033c0.38,0.416,0.76,0.85,1.112,1.257
	c-1.076,5.66-3.897,6.447-8.545,5C717.661,201.335,718.963,200.44,720.572,198.478 M717.173,281.521
	c-0.66-0.741-1.446-1.319-2.27-1.871v-1.257c0.714-0.407,1.166-0.669,1.709-1.23h2.278l0.579,0.606
	c-0.289,1.881-0.289,2.125-1.176,3.119C717.725,281.423,718.167,281.124,717.173,281.521 M718.294,341.472h-1.121v-1.257
	c1.212-0.316,2.07-0.543,2.866-1.239c0.533,0.218,1.112,0.416,1.709,0.624C721.052,341.635,719.976,342.503,718.294,341.472
	 M728.603,335.848c-0.1,2.604-0.416,2.875-1.176,4.367h-1.709c0.28-2.216,0.66-3.726,1.709-4.974
	c-0.633-1.582-1.429-1.817-2.242-3.138c0.913-0.777,1.157-1.302,1.709-2.478c1.455,0.091,1.935,0.263,2.848,0.615
	C729.588,331.941,729.325,334.663,728.603,335.848 M724.605,316.497c-1.176-0.253-1.14-0.163-1.718-0.642
	c-0.597-0.959-0.633-2.56-0.57-4.358c-0.822-0.299-2.758-0.724-3.427-1.257h-0.597c0.633-0.443,0.543-0.38,1.745-0.606
	c-0.38-2.414-0.732-2.351-1.745-3.752c-0.605-1.194,0.887-2.36,1.745-3.753c3.074,0.072,4.123,0.651,6.284,1.266
	c-0.162,2.352-0.578,3.87-1.139,5.625c2.151,0.877,2.115,0.741,4.557,0.614C728.729,313.034,726.567,314.264,724.605,316.497
	 M737.734,356.464v0.614c-0.442-0.669-0.343-0.578-0.561-1.871c0.38,0.244,0.76,0.397,1.14,0.65
	C738.124,356.057,737.934,356.247,737.734,356.464 M744.028,349.583c-0.38,1.085-0.136,0.642-0.579,1.257
	c-0.633,0.479-0.542,0.397-1.718,0.614c-0.344-2.722-0.669-2.125-1.736-3.743c0.787-0.841,1.556-1.673,2.315-2.486h2.242
	C744.589,347.051,744.625,348.624,744.028,349.583 M758.866,324.617c0.227-2.866,0.76-3.246,1.709-5.001
	c0.732-0.343,1.718-0.723,2.288-1.257c1.745,0.036,2.921,0.227,3.987,0.634v1.229c-0.85,0.985-1.673,2.577-2.278,3.752
	C762.637,324.21,760.774,324.409,758.866,324.617 M766.851,340.856c-1.709-0.696-1.293-0.054-0.597-1.881h1.176
	C767.212,339.6,767.05,340.215,766.851,340.856 M768.578,335.848v1.257h-1.728v-1.863c0.705-0.442,1.176-0.705,1.728-1.274h0.533
	C768.895,335.241,768.984,335.188,768.578,335.848 M778.28,330.241l-3.427,3.726c-1.646-0.606-2.026-1.076-2.849-2.478
	c-0.705-1.356,1.356-4.702,2.278-6.258c1.329,1.248,2.658,2.505,3.997,3.78V330.241z M782.276,297.771
	c-1.211-0.253-1.103-0.172-1.709-0.614h-0.569c0.597-1.944,1.356-2.27,2.278-3.78h2.279c0.198,0.217,0.38,0.443,0.578,0.651
	C784.429,296.206,783.507,296.342,782.276,297.771 M797.667,242.179l-2.261,2.514c-1.013,0.38-0.57,0.118-1.14,0.624h-2.857
	c0.887-2.695,2.577-3.065,3.997-5.019h2.261V242.179z M838.229,323.352c0.986,0.406,0.543,0.145,1.14,0.623
	C838.393,323.586,838.836,323.857,838.229,323.352 M843.944,318.359c-1.845-0.533-2.225-1.058-4.575-1.247
	c0.896-1.728,2.73-1.872,3.979-3.129h1.167C844.297,315.457,844.135,316.913,843.944,318.359 M847.941,317.754h-1.709v-1.257h1.709
	V317.754z M850.763,205.341c-1.393-0.914-0.67,0.154-1.112-1.863h1.112V205.341z M854.795,326.479h-1.718
	c0.543-1.356,0.479-0.913,1.148-1.862h1.112C855.175,325.231,854.985,325.874,854.795,326.479 M891.887,168.494v0.642
	c-1.086,0.28-0.706-0.262-1.122-0.642c-0.434-0.371-0.126,0,0-0.615c0.57-0.606,1.122-1.257,1.719-1.881h1.682
	C893.56,167.915,893.649,167.843,891.887,168.494 M665.226,353.326c-0.416-2.396-0.353-2.414-2.324-3.102
	c-0.94-0.705-2.785-0.679-4.566-0.642c-0.569,0.515-0.126,0.244-1.112,0.642c0.706,2.631,1.917,4.313,2.821,6.854
	C664.014,356.889,663.39,355.523,665.226,353.326 M357.452,285.88c-0.863-0.334-0.954-0.416-2.297-0.605
	c-0.583,0.506-0.131,0.235-1.13,0.605c-0.027,1.845-0.027,3.409,0.583,4.395c0.574,0.479,0.141,0.218,1.121,0.615
	C356.313,289.217,356.869,287.553,357.452,285.88 M421.498,485.206c0,0.398-0.809,0.823-1.862,1.176
	c-1.872,0.552-5.304,0.552-7.157-0.063c-1.058-0.289-1.601-0.714-1.601-1.112v-42.697h-44.75v43.159
	c0,3.97,10.594,6.917,28.867,7.378c53.25,1.329,71.271-1.537,71.271-7.649v-42.888h-44.769V485.206z M365.441,289.018
	c1.659,4.286,5.583,5.109,6.845,10.625c-1.958,1.944-4.123,4.539-4.566,8.12c5.118,0,9.368-0.715,13.156-1.257
	c-0.479,3.933-2.997,7.034-0.574,10.606c0,0,3.224-1.791,5.715-1.872c0.167-0.199,0.371-0.397,0.565-0.605
	c-0.177-2.496-0.854-4.124,0-5.615c-0.769-1.465-2.641-1.908-4.011-2.514c-0.026-4.883,1.334-6.918,4.011-8.735v-2.514h-1.723
	c0.267-2.079,0.75-3.68,1.723-4.982c-0.679-1.772-0.095-1.185-1.723-1.862c2.853-19.052,1.723-45.375,1.723-67.456v-114.89
	c0-26.123,2.979-59.443-6.28-76.181c-13.437-24.251-43.529-28.88-78.794-29.351c-8.621-0.117-21.28-1.456-30.286,0.605H259.81
	c-8.839,2.08-19.079,0.706-26.852,3.753c-39.731,15.634-35.97,54.94-35.97,112.403v123.652c0,24.875-1.898,52.427,0.583,76.164
	c1.334,0.217,2.659,0.416,4.002,0.642c0.7-0.181,1.857-1.862,2.856-1.898c8.134,5.597,12.605,3.3,16.539,14.386
	c2.481,0.397,4.964,0.823,7.437,1.248c2.898,1.537,5.24,4.774,9.119,5.615c4.155,0.895,9.092-3.021,13.156,0
	c1.927,1.066,2.111,4.214,3.983,4.991c0.769-0.217,1.537-0.416,2.278-0.624c0.118,0.108,0.524,2.396,0.584,2.496
	c3.377-0.263,8.377-1.312,10.832-3.111c2.563-0.741,3.024-4.032,4.02-6.257c3.413-0.579,5.452,0.904,9.128,1.248
	c0.443-6.99,0.665-15.752,0.583-23.736c-0.212-2.478-0.389-4.973-0.583-7.478c1.026-5.634,0.583-13.943,0.583-20.625V81.707
	c0-6.267-1.324-16.186,0.557-21.249c1.315-3.454,4.037-4.476,6.284-6.863c5.963,0,9.259,1.646,11.411,5.634
	c2.044,3.743,1.166,11.817,1.166,17.469v174.85c0,24.378-1.713,49.018,0.534,71.198c2.392,1.537,3.807,5.271,5.167,6.267h4.011
	c0.556,0.614,1.112,1.229,1.695,1.835c0.796-1.221,0.75-1.302,2.278-1.835c0.583-0.552,0.136-0.253,1.135-0.643
	c0.502,1.122,0.977,2.27,1.723,3.12v0.614h1.14c-0.488-3.444-1.609-4.847-1.723-8.752c-1.312,0.406-1.776,0.732-2.849,1.266
	c-0.918-1.936-1.234-2.532-3.399-3.146c-0.222-0.606-0.389-1.248-0.593-1.854l1.148-1.257c1.89-0.967,3.757-0.253,5.692-2.504
	c3.531,0.072,4.558,0.813,6.872,1.898c0.805,2.73,0.222,3.997,2.27,6.221c0.629,0.498,0.524,0.407,1.723,0.643
	c0.239-3.988,0.267-1.7,2.274-3.146c3.124-1.7,1.704-5.543,3.427-8.717c1.704-1.456,3.445-2.93,5.141-4.367
	c-0.186-1.673-0.371-3.337-0.584-4.992c-0.167-0.208-0.361-0.425-0.564-0.659c-0.927-0.19-1.89-0.398-2.835-0.606v-3.11
	c1.14-1.148,2.003-2.216,3.399-3.138c-0.406-2.261,0.073-1.709-1.704-2.505c0.483-3.102,2.184-4.187,2.871-6.221
	c0.547-1.682-1.112-6.827-1.167-9.992h-2.26c0.832-1.871,2.536-1.618,3.427-3.11c2.677-4.584-2.482-5.1,3.992-9.395
	c-0.263-3.571-1.614-5.082-3.427-6.854c-1.334-0.985-6.14-1.527-7.42-1.871c0.104-2.144,0.28-3.201,1.131-4.386
	c0.786-1.095,9.879-5.652,11.999-4.992c0.597,0.19,1.659,1.447,2.27,1.89c-0.85,6.148-1.46,9.946,3.445,12.46
	c-0.186,1.745-0.407,3.31-1.167,4.368c0.823,1.844,3.038,2.866,4.575,3.752c-0.131,2.17-0.212,2.649-1.13,3.762
	c0.61,3.653,2.324,3.807,2.844,7.496c2.202-0.605,4.842-1.619,6.293-3.12c2.482,0.263,2.333,0.832,4.558,1.23
	c0.371,1.809,0.769,3.264,1.704,4.395C368.746,285.238,367.208,287.697,365.441,289.018 M240.97,181.614
	c0.222-1.257,0.141-1.193,0.583-1.88v-1.239c1.121-0.217,2.279-0.425,3.404-0.633C244.505,180.728,243.665,181.307,240.97,181.614
	 M247.82,313.368v0.615h-1.148c0.122-1.618,0.262-2.106,0.565-3.102h1.157C248.267,312.319,248.276,312.636,247.82,313.368
	 M256.943,323.352c-0.37,0.415-0.741,0.858-1.121,1.266h-1.74c0.203-0.643,0.416-1.266,0.583-1.872h2.278V323.352z M266.655,254.069
	h1.704c-0.434,1.61-0.688,1.465-1.13,3.102h-2.279C265.515,256.122,266.081,255.092,266.655,254.069 M265.515,326.479v1.257h-3.427
	c0.186-0.633,0.38-1.257,0.583-1.862C263.625,326.082,264.571,326.263,265.515,326.479 M262.088,275.292v0.605
	c-0.583,0.416-1.148,0.813-1.704,1.266c-0.204-0.623-0.39-1.266-0.574-1.871H262.088z M259.249,280.889
	c0.973,0.425,0.534,0.145,1.136,0.633h0.556c-0.796,1.221-0.741,1.32-2.274,1.891v0.597h-1.139
	C258.015,282.173,258.376,282.118,259.249,280.889 M260.384,334.6h-2.857c0.488-1.121,0.953-2.252,1.722-3.11
	c1.284-0.597,1.063,0.072,2.84,0.614c0.76-0.841,1.537-1.663,2.287-2.478c2.297,0.407,3.983,1.438,5.706,2.478
	C267.776,334.066,263.06,332.863,260.384,334.6 M274.079,185.357c0.574,0.208,1.148,0.416,1.713,0.615
	c-0.167,0.651-0.389,1.266-0.564,1.881c-1.185-0.235-1.108-0.136-1.723-0.615h-0.561C273.468,185.9,273.422,186.316,274.079,185.357
	 M275.792,229.095c-1.396-0.506-1.98-0.914-2.848-1.908c-0.466-0.642-0.227-0.154-0.565-1.212c1.126-1.266,2.274-2.532,3.413-3.798
	h2.854c0.185,0.253,0.389,0.443,0.573,0.651C278.884,226.716,277.397,226.825,275.792,229.095 M312.332,317.112
	c-1.768-0.027-2.926-0.208-3.983-0.615c0.213-1.284,0.141-1.212,0.583-1.862c0.882-0.787,2.519-1.122,3.4-1.881h2.861
	c0.186,0.189,0.389,0.416,0.583,0.614C314.619,314.635,313.489,315.855,312.332,317.112 M329.471,191.615
	c1.867-0.94,3.711-1.356,6.858-1.239v1.872c-1.036,0.498-2.563,1.076-3.428,1.863c-2.138-0.235-2.138-0.479-3.431-1.257V191.615z
	 M336.885,204.093v2.514c-1.221,0.28-2.057,0.561-2.853,1.229h-2.288C332.961,205.802,334.1,204.5,336.885,204.093 M330.054,209.066
	h1.69c-0.194,0.651-0.37,1.275-0.574,1.872h-1.699C329.674,210.341,329.85,209.717,330.054,209.066 M323.2,283.412
	c0.308-1.989,0.502-1.827,1.14-3.129h2.853v3.129c-0.389,0.189-0.777,0.397-1.13,0.597c-0.61,0.515-0.167,0.244-1.157,0.65
	C324.375,284.081,323.915,283.81,323.2,283.412 M328.332,297.156c-1.315-0.679-1.252-1.086-2.27-1.899
	c0.054-3.734,0.777-5.1,1.13-8.102c0.389,0.189,0.751,0.397,1.14,0.615V297.156z M333.45,264.053
	c-0.213,1.274-0.118,1.193-0.548,1.88c-0.203,0.606-0.389,1.239-0.574,1.863c-1.329-0.217-1.433-0.308-2.273-0.624
	c0.203-2.342,0.442-2.342,1.116-3.753h1.731C333.079,263.646,333.273,263.809,333.45,264.053 M345.439,234.71
	c-1.601,0.063-2.414,0.235-3.395,0.624c0.528,2.297,1.008,1.691,1.704,3.735c-0.475,0.642-0.217,0.145-0.565,1.229
	c-1.908,0.217-3.824,0.425-5.705,0.651c-0.204-0.226-0.38-0.434-0.593-0.651v-3.734c-2.405,0.136-4.39,0.542-5.715,1.863
	c-1.813-0.334-1.654-0.534-2.839-1.221c0.312-5.859,0.285-9.91,2.274-13.762c4.177,0.389,4.078,3.409,5.131,6.881
	c4.187-0.19,5.113-1.936,4.585-5.615c1.343-0.552,0.936-0.244,1.723-1.266c2.062,0.732,3.413,2.052,5.136,3.146
	C346.673,229.818,345.561,230.858,345.439,234.71 M378.57,154.144c1.185-0.299,2.613-0.597,3.427-1.239
	c1.528,0.57,1.678,1.058,2.862,1.863c-0.565,3.852-2.288,3.906-3.983,6.239c-1.668-0.416-2.979-0.814-4.028-1.872
	c-0.434-0.651-0.194-0.145-0.547-1.239C377.272,156.884,377.959,155.554,378.57,154.144 M379.153,294.027h1.723
	c0.168,0.208,0.371,0.397,0.557,0.615c-0.696,1.428-1.406,1.338-2.279,2.514c-1.315-0.235-1.415-0.299-2.306-0.643
	c-0.167-0.425-0.37-0.832-0.547-1.257C377.042,294.949,378.561,294.507,379.153,294.027 M373.443,291.522h1.135
	c-0.524,1.338-0.506,0.896-1.135,1.854h-0.574C373.073,292.771,373.235,292.146,373.443,291.522 M366.005,65.485h2.871
	c-0.416,2.803-1.221,3.138-2.278,4.982c-0.954-0.208-1.908-0.407-2.871-0.624C364.202,67.239,364.961,67.213,366.005,65.485
	 M364.301,199.083h2.297c0.194,0.244,0.371,0.425,0.547,0.651c-0.493,2.604-1.14,2.088-2.278,3.743
	c-1.307-0.199-1.406-0.308-2.288-0.642C362.986,200.521,363.433,200.657,364.301,199.083 M362.013,224.709
	c0.67,1.682-0.75,3.3-1.713,5c-0.38,0.208-0.76,0.416-1.126,0.615c-0.203-0.199-0.38-0.407-0.583-0.615
	C359.337,227.124,360.572,226.373,362.013,224.709 M355.729,219.085v1.872c-1.401-0.913-0.65,0.136-1.121-1.872H355.729z
	 M354.025,257.804c-0.475-0.633-0.213-0.162-0.574-1.266c2.066-2.161,2.988-4.647,6.284-5.597c-0.805-2.188-2.301-2.596-3.422-4.386
	c-1.095-1.112,2.052-3.726,2.861-5h3.404c-0.38,0.787-0.61,1.311-1.13,1.881c0.262,2.794,0.75,2.659,1.713,4.368
	c2.546-0.516,3.947-2.442,5.141-4.368c1.75,0.018,2.935,0.226,3.983,0.615c0.443,7.235-2.455,11.9-7.419,7.497
	c-4.807,0.361-1.759,1.836-3.992,4.386c-1.14,1.311-2.952,0.968-4.006,2.495C355.422,258.365,354.766,258.347,354.025,257.804
	 M358.008,272.163h-1.695v-1.238h1.695V272.163z M368.876,274.659c-2.342-0.39-3.712-1.176-5.149,0.633
	c-3.563-0.443-2.658-1.908-4.553-3.753c0.674-5.497,2.175-5.108,4.553-8.12c3.224,1.356,4.064,6.014,6.854,8.12
	C370.052,273.212,369.6,273.348,368.876,274.659 M577.005,492.585h44.791v-50.076h-44.791V492.585z M653.046,442.066
	c-15.101,0.289-25.961,3.445-25.961,8.011v35.527c0,1.465,1.556,2.849,4.766,4.033c8.5,3.354,19.604,4.168,68.612,3.354
	c15.896-0.28,26.773-3.354,26.773-7.786v-35.282C727.236,443.061,712.417,440.972,653.046,442.066 M682.451,485.044
	c0,0.425-0.796,0.832-1.845,1.094c-1.872,0.588-5.335,0.588-7.162,0c-1.049-0.262-1.591-0.669-1.591-1.004V450.15
	c0-0.426,0.542-0.842,1.591-1.176c1.827-0.579,5.29-0.579,7.162,0c1.302,0.334,1.845,0.75,1.845,1.176V485.044z M570.626,448.351
	c-3.427-3.563-15.064-5.842-30.17-5.842H471.56v50.076h68.101c19.604,0,32.045-3.265,32.045-7.794v-34.415
	C571.706,449.671,571.448,448.975,570.626,448.351 M526.938,484.718c0,1.42-2.12,2.08-5.823,2.08h-4.778v-38.872h4.778
	c2.889,0,5.823,0.741,5.823,1.871V484.718z M790.27,343.325c-0.578,1.212-0.822,1.745-1.709,2.514
	c0.091,2.586,0.371,2.857,1.131,4.386h1.157C790.813,347.539,790.939,344.663,790.27,343.325 M113.064,377.686h1.139
	c-0.492-1.474-0.226-1.013-1.139-1.881V377.686z M267.229,347.711h-1.148c0.361,1.085,0.131,0.614,0.574,1.248v-0.606
	C266.858,348.127,267.025,347.91,267.229,347.711 M255.822,343.325h-1.157C255.591,344.103,255.135,344.338,255.822,343.325
	 M228.347,441.723c-29.663-0.063-38.176,0.786-45.044,3.789c-2.897,1.157-4.512,2.622-4.512,4.087v10.561
	c0,1.257,1.614,2.649,4.512,3.906c2.379,0.959,5.823,1.881,11.131,2.623l31.784,5.018c6.104,0.923,6.89,1.258,6.89,2.768v10.516
	l-5.565,1.736l-4.756-1.592v-12.17h-43.995v12.17c0,4.368,10.882,7.451,28.898,7.858c35.771,0.922,50.605-0.082,58.002-1.809
	c7.437-1.836,11.425-3.906,11.425-5.715v-13.627c0-3.2-5.037-5.353-18.297-7.314l-27.832-4.097
	c-7.668-1.094-8.201-1.365-8.201-3.879v-6.475l5.561-1.682l4.761,1.755v8.779h44.009v-9.539
	C277.117,444.254,264.633,441.967,228.347,441.723 M186.166,335.241c-4.974-2.45-4.91-4.603-7.438-9.367
	c-1.343-0.227-2.667-0.443-4.001-0.643c-0.312-3.544-1.026-2.758-2.849-4.367c-0.908-1.365-0.881-4.195-1.723-5.624
	c-1.438-3.047-4.742-2.17-6.854-4.358c-1.695-1.772-1.813-5.579-3.418-7.487c0.186-1.745,0.411-3.309,1.13-4.376
	c0.194-0.633,0.38-1.248,0.593-1.862c3.549,0.614,5.574,2.359,9.707,2.486c-0.254,1.257-0.141,1.202-0.584,1.862
	c0.177,1.438,0.268,1.556,0.584,2.496c0.564,0.217,1.121,0.406,1.704,0.633c0.574-0.633,1.135-1.239,1.709-1.898
	c0.891,0.081,2.509,2.622,4.566,1.266c2.527,0.578,2.527,2.314,3.427,4.386h4.562c0.132-28.131,3.834-74.463-6.84-90.532
	c-4.499-6.8-12.972-12.279-20.002-16.249c-2.545-1.456-5.786-1.872-7.971-3.744h-1.148c2.613-1.971,6.602-1.709,9.693-3.138
	c7.935-3.635,16.77-10.453,21.123-18.084c5.656-9.901,5.145-24.83,5.145-41.26c0-31.295,4.097-81.235-6.84-100.503
	c-6.678-11.801-18.058-20.454-30.834-25.617c-3.621-1.456-14.509-1.989-17.131-3.716H13.138C8.934,5.545,3.269,4.966,0,6.142
	v393.426h110.776c-0.574-0.867-1.13-1.673-1.695-2.522c0.167-0.199,0.361-0.425,0.565-0.614c4.331,0.063,6.352,1.085,9.693,1.871
	c0.194-0.226,0.38-0.407,0.564-0.614c-0.841-3.726-5.832-8.727-8.563-10.644c-0.149-2.612-0.045-2.459,0-5.605
	c-7.613-0.072-8.314-4.477-11.425-9.35c0.063-1.8,0.23-2.677,0.574-3.762c3.174,0.298,7.107,2.821,8.007,5.606
	c8.332-0.977,9.223-1.564,16.556,2.486c0.443,1.41,0.602,3.409,0.565,5.633h1.14c1.867-3.852,3.979-7.522,5.719-11.854
	c1.669,0,3.102-0.019,3.983,0.597c0.407,0.822-1.185,6.682-2.27,8.155c-0.009,4.965,4.86,9.459,7.993,10.589
	c0.339,0.488,0.019,0.172,0.565,0c2.5-1.04,3.702-5.443,3.996-8.726c2.695,0.452,4.133,1.41,4.575,4.367
	c4.196,0.85,6.262-0.516,10.833-1.266v2.522c2.789-0.208,3.26-0.886,4.594,0.605c0.547-0.189,1.121-0.397,1.704-0.605
	c0.194-0.416,0.38-0.841,0.574-1.257c-3.391-1.862-8.753-5.561-10.285-9.377l-0.588-4.358c-1.081-2.197-4.322-0.805-5.684-2.486
	c-0.786-2.288-1.537-4.594-2.296-6.881c-1.14-0.199-2.27-0.398-3.428-0.624c-1.699-1.881-3.444-3.753-5.145-5.598
	c-2.225-3.318,1.229-4.919-2.862-7.505v-0.642c7.704-0.362,8.979-0.813,10.869,5.615c2.383,0,3.852-0.118,5.141-1.229
	c0.927-0.859,0.655-0.371,1.148-1.872c-1.592-1.628-3.861-5.136-4.576-7.487c2.121-2.179,5.611-4.458,7.42-6.89
	c2.961,0.904,3.508,3.987,5.719,5.624c2.555,1.908,6.14,2.278,8.559,4.367c0.524,0.977,0.239,1.754,0.574,3.12
	c3.432,1.582,9.269,2.405,11.999,5.018C189.561,351.418,186.537,339.193,186.166,335.241 M174.153,283.412
	c1.18-0.254,1.104-0.182,1.714-0.624c1.13,0.208,2.287,0.397,3.427,0.624c-0.696,2.27-1.75,2.703-2.844,4.358
	c-1.768-0.027-2.926-0.218-4.015-0.615C172.841,284.804,173.285,284.931,174.153,283.412 M166.748,277.163h0.547
	c0.628-0.488,0.547-0.397,1.731-0.623v1.854h-0.574c-0.61,0.488-0.529,0.416-1.704,0.633V277.163z M85.091,50.466
	c7.908-0.09,13.324,0.172,16.557,5.01c4.395,6.637,2.849,21.873,2.849,33.104v52.444c0,7.442,1.429,18.094-0.574,24.378
	c-1.185,3.708-8.139,11.827-11.416,13.093c-0.805,0.461-0.732,0.181-1.704-0.633c-0.443-0.651-0.362-0.579-0.557-1.863h-5.154
	V50.466z M78.793,343.968c-1.333,0.135-1.601,0.135-2.278,0.642c-1.637-0.633-2.017-1.104-2.853-2.514
	c-0.452-0.643-0.222-0.136-0.561-1.239c1.221-1.257,2.758-2.45,3.987-3.752h2.861C81.339,340.559,80.525,341.191,78.793,343.968
	 M87.371,388.943v1.238c-1.528-0.198-3.057-0.442-4.575-0.642c0.451-2.586,1.238-2.631,2.296-4.358h3.437
	C88.37,387.361,88.311,387.795,87.371,388.943 M93.062,363.969c-0.936,0.561-1.591-0.452-2.816-1.266v-2.496h1.695
	c0.493,1.176,0.814,1.646,1.121,3.138c0.204,0.199,0.407,0.397,0.584,0.624H93.062z M99.917,353.326
	c-4.363,1.329-8.215,2.667-14.825,2.531V219.691c4.603,0.027,9.269,0.353,13.111,0.615c1.609,1.781,3.951,2.839,5.146,5.009
	c3.241,5.959,1.148,21.602,1.148,29.975v62.464C104.497,333.315,105.396,343.895,99.917,353.326 M109.646,368.327
	c0.176-0.217,0.389-0.416,0.556-0.624c0.471,0.651,0.194,0.145,0.574,1.257C110.776,368.96,108.534,368.797,109.646,368.327
	 M108.498,363.345c-3.102,0.027-4.295-0.253-5.724-1.89h-0.543c0.561-1.953,1.434-2.813,2.266-4.377
	c2.509,0.172,2.536,0.326,4.584,0c0.511,0.561,0.981,0.842,1.695,1.267C110.333,360.931,109.488,361.5,108.498,363.345
	 M141.036,272.787c1.176,0.244,1.099,0.163,1.714,0.633c0.552,0.633,1.139,1.239,1.723,1.872c-0.132,1.419-0.122,1.736-0.584,2.478
	v0.624c-1.527-0.507-2.531-1.194-3.992-1.854C140.267,274.379,140.57,274.604,141.036,272.787 M145.046,310.24
	c1.555,0.026,2.608,0.026,3.404,0.642c1.613,0.705,1.094,0.072,1.723,1.872c0.185,0.189,0.389,0.416,0.583,0.614h-0.583
	c-0.462,1.845-0.99,2.396-1.723,3.744c-2.184,0.026-4.286-0.091-5.701-0.615C142.894,312.754,143.749,312.419,145.046,310.24
	 M137.035,322.745c-2.139-0.208-2.103-0.479-3.409-1.274v-1.248c0.741-0.416,1.501-0.823,2.27-1.229
	c0.398,0.406,0.778,0.813,1.14,1.229V322.745z M141.601,375.199c1.334,0.461,1.284,0.651,2.287,1.221
	c-0.52,2.233-1.438,4.973-2.853,6.266c-0.592,0.525-0.149,0.254-1.14,0.634c-0.547-0.579-0.98-0.859-1.722-1.267
	C138.174,376.962,139.431,377.478,141.601,375.199 M148.451,339.6c-0.344,0.488,0,0.172-0.547,0
	c-4.119-2.143-0.973-7.08,1.704-8.753c-0.407-2.314-0.851-2.215-1.704-3.743c-1.917,0.877-4.341,2.785-5.72,4.386
	c-2.898-0.163-2.898-0.732-4.566-1.863c0.484-3.21,1.731-3.906,2.844-6.274c3.26,0.415,2.998,2.495,5.127,3.128
	c1.361-0.217,2.677-0.397,4.02-0.605c1.89,0.542,3.047,2.658,4.575,3.752C153.664,334.347,151.755,337.837,148.451,339.6
	 M158.153,297.156c-5.62-0.462-15.015-14.531-13.681-18.13c3.305,0.524,1.099,0.868,2.857,1.862c1.835,1.076,2.559-0.488,3.991,0
	c2.085,2.107,4.188,4.178,6.28,6.267c-0.361,1.058-0.104,0.605-0.592,1.257c0.533,3.11,1.618,2.857,4.005,3.734
	c-0.294,1.312-0.506,2.252-1.13,3.11C159.324,295.881,158.741,296.514,158.153,297.156 M156.461,356.464
	c0.99-0.407,0.548-0.108,1.14-0.606c0.186-0.253,0.389-0.406,0.552-0.65c-0.552-0.217-1.144-0.407-1.691-0.633V356.464z
	 M310.052,332.104h1.167v-1.257h-1.167V332.104z M308.931,333.36c-1.229,0.127-0.09,0.94,0.565,1.239
	C310.052,333.678,309.099,333.542,308.931,333.36 M281.063,449.526h18.026v43.059h45.017v-43.059h18.021v-7.018h-81.063V449.526z
	 M280.923,338.379v1.221h0.583C281.126,338.515,281.403,338.994,280.923,338.379 M269.516,347.096
	c-0.574,0.497-0.14,0.217-1.157,0.615l0.583,1.248h1.714C270.163,347.512,270.434,347.91,269.516,347.096 M782.087,441.723
	c-29.694-0.063-38.158,0.786-45.049,3.789c-2.92,1.157-4.493,2.622-4.493,4.087v10.561c0,1.257,1.573,2.649,4.493,3.906
	c2.379,0.959,5.833,1.881,11.104,2.623l31.783,5.018c6.121,0.923,6.927,1.258,6.927,2.768v10.516l-5.562,1.736l-4.783-1.592v-12.17
	h-43.963v12.17c0,4.368,10.832,7.451,28.862,7.858c35.744,0.922,50.618-0.082,58.015-1.809c7.424-1.836,11.394-3.906,11.394-5.715
	v-13.627c0-3.2-5.01-5.353-18.274-7.314l-27.823-4.097c-7.677-1.094-8.21-1.365-8.21-3.879v-6.475l5.579-1.682l4.766,1.755v8.779
	h43.963v-9.539C830.815,444.254,818.373,441.967,782.087,441.723"/>
</svg>
